# xmcd CD database file
#
# Track frame offsets:
#	151
#	12181
#	25125
#	40384
#	52299
#	90110
#	111700
#	125948
#	136714
#	153091
#	176647
#	193949
#
# Disc length: 3158 seconds
#
# Revision: 0
# Processed by: cddbd v1.5.1PL0 Copyright (c) Steve Scherf et al.
# Submitted via: CDex 1.51
#
DISCID=a40c540c
DTITLE=Junior Brown - Live at the Continental Club
DYEAR=2005
DGENRE=Country
TTITLE0=Broke Down South of Dallas
TTITLE1=Party Lights
TTITLE2=My Wife Thinks Your Dead
TTITLE3=Hillbilly Hula Gal
TTITLE4=I Hung It Up
TTITLE5=Juan Charasquado
TTITLE6=Highway Patrol
TTITLE7=Gotta Get Up Every Morning
TTITLE8=Lifeguard Larry
TTITLE9=Long Walk Back To San Antone
TTITLE10=I Want to Live and Love Always
TTITLE11=Rock and Roll Medley
EXTD=YEAR: 2005
EXTT0=
EXTT1=
EXTT2=
EXTT3=
EXTT4=
EXTT5=
EXTT6=
EXTT7=
EXTT8=
EXTT9=
EXTT10=
EXTT11=
PLAYORDER=
